<mxfile host="app.diagrams.net" modified="2023-07-01T18:20:54.621Z" agent="Mozilla/5.0 (Windows NT 10.0; Win64; x64; rv:109.0) Gecko/20100101 Firefox/114.0" etag="MQikXtPX86e0Yr2x5_7_" version="21.3.2" type="github">
  <diagram name="Página-1" id="x-N38VqKMPOv2hVq8iVs">
    <mxGraphModel dx="868" dy="436" grid="1" gridSize="10" guides="1" tooltips="1" connect="1" arrows="1" fold="1" page="1" pageScale="1" pageWidth="827" pageHeight="1169" math="0" shadow="0">
      <root>
        <mxCell id="0" />
        <mxCell id="1" parent="0" />
        <mxCell id="sq0r280DWLotltU3NOkU-3" value="" style="ellipse;whiteSpace=wrap;html=1;fillColor=#304b83;strokeColor=#6c8ebf;" parent="1" vertex="1">
          <mxGeometry x="70" y="270" width="30" height="30" as="geometry" />
        </mxCell>
        <mxCell id="sq0r280DWLotltU3NOkU-4" value="" style="endArrow=classic;html=1;rounded=0;strokeColor=#304B83;exitX=1;exitY=0.5;exitDx=0;exitDy=0;entryX=0;entryY=0.5;entryDx=0;entryDy=0;" parent="1" source="sq0r280DWLotltU3NOkU-3" target="sq0r280DWLotltU3NOkU-13" edge="1">
          <mxGeometry width="50" height="50" relative="1" as="geometry">
            <mxPoint x="120" y="274.8" as="sourcePoint" />
            <mxPoint x="268.88" y="274.38" as="targetPoint" />
          </mxGeometry>
        </mxCell>
        <mxCell id="sq0r280DWLotltU3NOkU-12" value="u: sistema&lt;br&gt;acadêmico&lt;br&gt;universitário" style="edgeLabel;html=1;align=left;verticalAlign=middle;resizable=0;points=[];" parent="sq0r280DWLotltU3NOkU-4" vertex="1" connectable="0">
          <mxGeometry x="-0.134" relative="1" as="geometry">
            <mxPoint x="-19" as="offset" />
          </mxGeometry>
        </mxCell>
        <mxCell id="sq0r280DWLotltU3NOkU-16" style="edgeStyle=orthogonalEdgeStyle;rounded=0;orthogonalLoop=1;jettySize=auto;html=1;strokeColor=#304B83;" parent="1" source="sq0r280DWLotltU3NOkU-13" target="sq0r280DWLotltU3NOkU-17" edge="1">
          <mxGeometry relative="1" as="geometry">
            <mxPoint x="330" y="480" as="targetPoint" />
          </mxGeometry>
        </mxCell>
        <mxCell id="sq0r280DWLotltU3NOkU-18" value="u: efetuar&amp;nbsp;&lt;i&gt;login&lt;/i&gt;" style="edgeLabel;html=1;align=center;verticalAlign=middle;resizable=0;points=[];" parent="sq0r280DWLotltU3NOkU-16" vertex="1" connectable="0">
          <mxGeometry x="-0.0722" relative="1" as="geometry">
            <mxPoint x="40" as="offset" />
          </mxGeometry>
        </mxCell>
        <mxCell id="sq0r280DWLotltU3NOkU-13" value="&lt;pre style=&quot;font-size: 8px;&quot;&gt;&lt;font style=&quot;font-size: 8px;&quot;&gt;&lt;br&gt;&lt;/font&gt;&lt;font style=&quot;font-size: 8px;&quot;&gt;&lt;br/&gt;[identificar-se:&lt;br&gt; d+u: &lt;/font&gt;&lt;font style=&quot;font-size: 8px;&quot;&gt;matrícula,&lt;br&gt;  senha papel {&lt;br&gt;    professor,&lt;br&gt;    aluno,&lt;br&gt;    funcionário}&lt;/font&gt;&lt;/pre&gt;" style="rounded=1;whiteSpace=wrap;html=1;absoluteArcSize=1;arcSize=14;strokeWidth=2;strokeColor=#304B83;align=left;" parent="1" vertex="1">
          <mxGeometry x="280" y="240" width="100" height="90" as="geometry" />
        </mxCell>
        <mxCell id="sq0r280DWLotltU3NOkU-14" value="" style="endArrow=none;html=1;rounded=0;entryX=1;entryY=0.25;entryDx=0;entryDy=0;exitX=0;exitY=0.25;exitDx=0;exitDy=0;strokeColor=#304B83;" parent="1" source="sq0r280DWLotltU3NOkU-13" target="sq0r280DWLotltU3NOkU-13" edge="1">
          <mxGeometry width="50" height="50" relative="1" as="geometry">
            <mxPoint x="220" y="370" as="sourcePoint" />
            <mxPoint x="270" y="320" as="targetPoint" />
          </mxGeometry>
        </mxCell>
        <mxCell id="sq0r280DWLotltU3NOkU-15" value="Efetuar Login" style="edgeLabel;html=1;align=center;verticalAlign=middle;resizable=0;points=[];" parent="sq0r280DWLotltU3NOkU-14" vertex="1" connectable="0">
          <mxGeometry x="-0.128" relative="1" as="geometry">
            <mxPoint x="6" y="-12" as="offset" />
          </mxGeometry>
        </mxCell>
        <mxCell id="sq0r280DWLotltU3NOkU-19" style="edgeStyle=orthogonalEdgeStyle;rounded=0;orthogonalLoop=1;jettySize=auto;html=1;entryX=0;entryY=0.5;entryDx=0;entryDy=0;strokeColor=#304B83;" parent="1" source="sq0r280DWLotltU3NOkU-17" target="sq0r280DWLotltU3NOkU-21" edge="1">
          <mxGeometry relative="1" as="geometry">
            <mxPoint x="330" y="540" as="targetPoint" />
            <Array as="points">
              <mxPoint x="330" y="538" />
            </Array>
          </mxGeometry>
        </mxCell>
        <mxCell id="sq0r280DWLotltU3NOkU-24" value="if: &lt;i&gt;login&lt;/i&gt; efetuado&lt;br&gt;&lt;div style=&quot;text-align: left;&quot;&gt;com sucesso&lt;/div&gt;" style="edgeLabel;html=1;align=center;verticalAlign=middle;resizable=0;points=[];" parent="sq0r280DWLotltU3NOkU-19" vertex="1" connectable="0">
          <mxGeometry x="-0.5061" y="-1" relative="1" as="geometry">
            <mxPoint x="51" as="offset" />
          </mxGeometry>
        </mxCell>
        <mxCell id="sq0r280DWLotltU3NOkU-36" style="edgeStyle=orthogonalEdgeStyle;rounded=0;orthogonalLoop=1;jettySize=auto;html=1;entryX=0;entryY=0.667;entryDx=0;entryDy=0;entryPerimeter=0;dashed=1;strokeColor=#304B83;" parent="1" source="sq0r280DWLotltU3NOkU-17" target="sq0r280DWLotltU3NOkU-13" edge="1">
          <mxGeometry relative="1" as="geometry">
            <Array as="points">
              <mxPoint x="240" y="420" />
              <mxPoint x="240" y="300" />
            </Array>
          </mxGeometry>
        </mxCell>
        <mxCell id="sq0r280DWLotltU3NOkU-37" value="d: login ou senha&lt;br&gt;&lt;div style=&quot;text-align: left;&quot;&gt;incorreto&lt;/div&gt;" style="edgeLabel;html=1;align=center;verticalAlign=middle;resizable=0;points=[];" parent="sq0r280DWLotltU3NOkU-36" vertex="1" connectable="0">
          <mxGeometry x="0.0278" y="-1" relative="1" as="geometry">
            <mxPoint x="-51" as="offset" />
          </mxGeometry>
        </mxCell>
        <mxCell id="sq0r280DWLotltU3NOkU-17" value="" style="verticalLabelPosition=bottom;verticalAlign=top;html=1;shape=mxgraph.basic.patternFillRect;fillStyle=solid;step=5;fillStrokeWidth=0.2;fillStrokeColor=#dddddd;fillColor=#304B83;strokeColor=#304B83;" parent="1" vertex="1">
          <mxGeometry x="320" y="410" width="20" height="20" as="geometry" />
        </mxCell>
        <mxCell id="sq0r280DWLotltU3NOkU-21" value="&lt;pre style=&quot;font-size: 8px;&quot;&gt;&lt;font style=&quot;font-size: 8px;&quot;&gt;&lt;br&gt;&lt;/font&gt;&lt;font style=&quot;font-size: 8px;&quot;&gt;&lt;br&gt;[lembrar dados da sessão:&lt;br&gt; d: nome, matrícula,&lt;br/&gt;  data, horário]&lt;/font&gt;&lt;/pre&gt;" style="rounded=1;whiteSpace=wrap;html=1;absoluteArcSize=1;arcSize=14;strokeWidth=2;strokeColor=#304B83;align=left;" parent="1" vertex="1">
          <mxGeometry x="460" y="495" width="150" height="85" as="geometry" />
        </mxCell>
        <mxCell id="sq0r280DWLotltU3NOkU-22" value="" style="endArrow=none;html=1;rounded=0;entryX=1;entryY=0.25;entryDx=0;entryDy=0;exitX=0;exitY=0.25;exitDx=0;exitDy=0;strokeColor=#304B83;" parent="1" source="sq0r280DWLotltU3NOkU-21" target="sq0r280DWLotltU3NOkU-21" edge="1">
          <mxGeometry width="50" height="50" relative="1" as="geometry">
            <mxPoint x="360" y="625" as="sourcePoint" />
            <mxPoint x="410" y="575" as="targetPoint" />
          </mxGeometry>
        </mxCell>
        <mxCell id="sq0r280DWLotltU3NOkU-23" value="Ver operações disponíveis" style="edgeLabel;html=1;align=center;verticalAlign=middle;resizable=0;points=[];" parent="sq0r280DWLotltU3NOkU-22" vertex="1" connectable="0">
          <mxGeometry x="-0.128" relative="1" as="geometry">
            <mxPoint x="6" y="-12" as="offset" />
          </mxGeometry>
        </mxCell>
      </root>
    </mxGraphModel>
  </diagram>
</mxfile>
